<svg width="100%" viewBox="0 0 680 205" xmlns="http://www.w3.org/2000/svg">
<style>
.tag{fill:#2a7a2a}
.ods{fill:#1a3a1a}
.sub{fill:#4a8a4a}
.dv{stroke:#c0d8c0;stroke-width:.8}
@media(prefers-color-scheme:dark){
.tag{fill:#4a9a4a}
.ods{fill:#e8f5e8}
.sub{fill:#8abf8a}
.dv{stroke:#2e4a2e}
}
</style>
<path class="tag" d="M206.203125 91.875V81.8125L238.296875 69.59375V76.71875L212.265625 86.875L238.296875 97.0V104.09375Z"/>
<path class="tag" d="M244.234375 108.625 269.890625 61.625H277.015625L251.484375 108.625Z"/>
<path class="ods" d="M336.953125 85.78125Q336.953125 92.65625 334.234375 97.875Q331.515625 103.09375 326.453125 105.859375Q321.390625 108.625 314.640625 108.625Q304.265625 108.625 298.375 102.515625Q292.484375 96.40625 292.484375 85.78125Q292.484375 75.1875 298.359375 69.25Q304.234375 63.3125 314.703125 63.3125Q325.171875 63.3125 331.0625 69.3125Q336.953125 75.3125 336.953125 85.78125ZM327.546875 85.78125Q327.546875 78.65625 324.171875 74.609375Q320.796875 70.5625 314.703125 70.5625Q308.515625 70.5625 305.140625 74.578125Q301.765625 78.59375 301.765625 85.78125Q301.765625 93.03125 305.21875 97.203125Q308.671875 101.375 314.640625 101.375Q320.828125 101.375 324.1875 97.3125Q327.546875 93.25 327.546875 85.78125Z"/>
<path class="ods" d="M383.171875 85.65625Q383.171875 92.46875 380.5 97.546875Q377.828125 102.625 372.9375 105.3125Q368.046875 108.0 361.734375 108.0H343.921875V63.96875H359.859375Q370.984375 63.96875 377.078125 69.578125Q383.171875 75.1875 383.171875 85.65625ZM373.890625 85.65625Q373.890625 78.5625 370.203125 74.828125Q366.515625 71.09375 359.671875 71.09375H353.140625V100.875H360.953125Q366.890625 100.875 370.390625 96.78125Q373.890625 92.6875 373.890625 85.65625Z"/>
<path class="ods" d="M426.046875 95.3125Q426.046875 101.78125 421.25 105.203125Q416.453125 108.625 407.171875 108.625Q398.703125 108.625 393.890625 105.625Q389.078125 102.625 387.703125 96.53125L396.609375 95.0625Q397.515625 98.5625 400.140625 100.140625Q402.765625 101.71875 407.421875 101.71875Q417.078125 101.71875 417.078125 95.84375Q417.078125 93.96875 415.96875 92.75Q414.859375 91.53125 412.84375 90.71875Q410.828125 89.90625 405.109375 88.75Q400.171875 87.59375 398.234375 86.890625Q396.296875 86.1875 394.734375 85.234375Q393.171875 84.28125 392.078125 82.9375Q390.984375 81.59375 390.375 79.78125Q389.765625 77.96875 389.765625 75.625Q389.765625 69.65625 394.25 66.484375Q398.734375 63.3125 407.296875 63.3125Q415.484375 63.3125 419.59375 65.875Q423.703125 68.4375 424.890625 74.34375L415.953125 75.5625Q415.265625 72.71875 413.15625 71.28125Q411.046875 69.84375 407.109375 69.84375Q398.734375 69.84375 398.734375 75.09375Q398.734375 76.8125 399.625 77.90625Q400.515625 79.0 402.265625 79.765625Q404.015625 80.53125 409.359375 81.6875Q415.703125 83.03125 418.4375 84.171875Q421.171875 85.3125 422.765625 86.828125Q424.359375 88.34375 425.203125 90.453125Q426.046875 92.5625 426.046875 95.3125Z"/>
<path class="tag" d="M441.703125 104.09375V97.0L467.703125 86.875L441.703125 76.71875V69.59375L473.796875 81.8125V91.875Z"/>
<line class="dv" x1="40" y1="145" x2="640" y2="145"/>
<path class="sub" d="M231.0859375 170.833984375Q231.0859375 172.12890625 230.5908203125 173.1015625Q230.095703125 174.07421875 229.169921875 174.595703125Q228.244140625 175.1171875 226.984375 175.1171875Q225.712890625 175.1171875 224.7900390625 174.6015625Q223.8671875 174.0859375 223.380859375 173.1103515625Q222.89453125 172.134765625 222.89453125 170.833984375Q222.89453125 168.853515625 223.978515625 167.7373046875Q225.0625 166.62109375 226.99609375 166.62109375Q228.255859375 166.62109375 229.181640625 167.1220703125Q230.107421875 167.623046875 230.5966796875 168.578125Q231.0859375 169.533203125 231.0859375 170.833984375ZM229.943359375 170.833984375Q229.943359375 169.29296875 229.1728515625 168.4140625Q228.40234375 167.53515625 226.99609375 167.53515625Q225.578125 167.53515625 224.8046875 168.40234375Q224.03125 169.26953125 224.03125 170.833984375Q224.03125 172.38671875 224.8134765625 173.2978515625Q225.595703125 174.208984375 226.984375 174.208984375Q228.4140625 174.208984375 229.1787109375 173.3271484375Q229.943359375 172.4453125 229.943359375 170.833984375Z"/>
<path class="sub" d="M244.03125 169.228515625Q244.03125 170.400390625 243.2666015625 171.091796875Q242.501953125 171.783203125 241.189453125 171.783203125H238.763671875V175.0H237.64453125V166.744140625H241.119140625Q242.5078125 166.744140625 243.26953125 167.39453125Q244.03125 168.044921875 244.03125 169.228515625ZM242.90625 169.240234375Q242.90625 167.640625 240.984375 167.640625H238.763671875V170.8984375H241.03125Q242.90625 170.8984375 242.90625 169.240234375Z"/>
<path class="sub" d="M250.6484375 175.0V166.744140625H256.912109375V167.658203125H251.767578125V170.306640625H256.560546875V171.208984375H251.767578125V174.0859375H257.15234375V175.0Z"/>
<path class="sub" d="M269.0078125 175.0 264.58984375 167.96875 264.619140625 168.537109375 264.6484375 169.515625V175.0H263.65234375V166.744140625H264.953125L269.41796875 173.822265625Q269.34765625 172.673828125 269.34765625 172.158203125V166.744140625H270.35546875V175.0Z"/>
<path class="sub" d="M284.42578125 170.787109375Q284.42578125 172.064453125 283.927734375 173.0224609375Q283.4296875 173.98046875 282.515625 174.490234375Q281.6015625 175.0 280.40625 175.0H277.318359375V166.744140625H280.048828125Q282.146484375 166.744140625 283.2861328125 167.7958984375Q284.42578125 168.84765625 284.42578125 170.787109375ZM283.30078125 170.787109375Q283.30078125 169.251953125 282.4599609375 168.4462890625Q281.619140625 167.640625 280.025390625 167.640625H278.4375V174.103515625H280.27734375Q281.185546875 174.103515625 281.8740234375 173.705078125Q282.5625 173.306640625 282.931640625 172.556640625Q283.30078125 171.806640625 283.30078125 170.787109375Z"/>
<path class="sub" d="M294.283203125 175.1171875Q293.26953125 175.1171875 292.513671875 174.748046875Q291.7578125 174.37890625 291.341796875 173.67578125Q290.92578125 172.97265625 290.92578125 172.0V166.744140625H292.044921875V171.90625Q292.044921875 173.037109375 292.619140625 173.623046875Q293.193359375 174.208984375 294.27734375 174.208984375Q295.390625 174.208984375 296.0087890625 173.6025390625Q296.626953125 172.99609375 296.626953125 171.830078125V166.744140625H297.740234375V171.89453125Q297.740234375 172.896484375 297.3154296875 173.623046875Q296.890625 174.349609375 296.1142578125 174.7333984375Q295.337890625 175.1171875 294.283203125 175.1171875Z"/>
<path class="sub" d="M307.884765625 167.658203125V175.0H306.771484375V167.658203125H303.935546875V166.744140625H310.720703125V167.658203125Z"/>
<path class="sub" d="M320.63671875 167.53515625Q319.265625 167.53515625 318.50390625 168.4169921875Q317.7421875 169.298828125 317.7421875 170.833984375Q317.7421875 172.3515625 318.5361328125 173.2744140625Q319.330078125 174.197265625 320.68359375 174.197265625Q322.41796875 174.197265625 323.291015625 172.48046875L324.205078125 172.9375Q323.6953125 174.00390625 322.7724609375 174.560546875Q321.849609375 175.1171875 320.630859375 175.1171875Q319.3828125 175.1171875 318.4716796875 174.5986328125Q317.560546875 174.080078125 317.0830078125 173.1162109375Q316.60546875 172.15234375 316.60546875 170.833984375Q316.60546875 168.859375 317.671875 167.740234375Q318.73828125 166.62109375 320.625 166.62109375Q321.943359375 166.62109375 322.828125 167.13671875Q323.712890625 167.65234375 324.12890625 168.666015625L323.068359375 169.017578125Q322.78125 168.296875 322.1455078125 167.916015625Q321.509765625 167.53515625 320.63671875 167.53515625Z"/>
<path class="sub" d="M336.23046875 175.0V171.173828125H331.765625V175.0H330.646484375V166.744140625H331.765625V170.236328125H336.23046875V166.744140625H337.349609375V175.0Z"/>
<path class="sub" d="M350.78125 172.720703125Q350.78125 173.86328125 349.8876953125 174.490234375Q348.994140625 175.1171875 347.37109375 175.1171875Q344.353515625 175.1171875 343.873046875 173.01953125L344.95703125 172.802734375Q345.14453125 173.546875 345.75390625 173.8955078125Q346.36328125 174.244140625 347.412109375 174.244140625Q348.49609375 174.244140625 349.0849609375 173.8720703125Q349.673828125 173.5 349.673828125 172.779296875Q349.673828125 172.375 349.4892578125 172.123046875Q349.3046875 171.87109375 348.970703125 171.70703125Q348.63671875 171.54296875 348.173828125 171.431640625Q347.7109375 171.3203125 347.1484375 171.19140625Q346.169921875 170.974609375 345.6630859375 170.7578125Q345.15625 170.541015625 344.86328125 170.2744140625Q344.5703125 170.0078125 344.4150390625 169.650390625Q344.259765625 169.29296875 344.259765625 168.830078125Q344.259765625 167.76953125 345.0712890625 167.1953125Q345.8828125 166.62109375 347.39453125 166.62109375Q348.80078125 166.62109375 349.544921875 167.0517578125Q350.2890625 167.482421875 350.587890625 168.51953125L349.486328125 168.712890625Q349.3046875 168.056640625 348.794921875 167.7607421875Q348.28515625 167.46484375 347.3828125 167.46484375Q346.392578125 167.46484375 345.87109375 167.79296875Q345.349609375 168.12109375 345.349609375 168.771484375Q345.349609375 169.15234375 345.5517578125 169.4013671875Q345.75390625 169.650390625 346.134765625 169.8232421875Q346.515625 169.99609375 347.65234375 170.248046875Q348.033203125 170.3359375 348.4111328125 170.4267578125Q348.7890625 170.517578125 349.134765625 170.6435546875Q349.48046875 170.76953125 349.7822265625 170.939453125Q350.083984375 171.109375 350.306640625 171.35546875Q350.529296875 171.6015625 350.6552734375 171.935546875Q350.78125 172.26953125 350.78125 172.720703125Z"/>
<path class="sub" d="M365.091796875 170.833984375Q365.091796875 172.12890625 364.5966796875 173.1015625Q364.1015625 174.07421875 363.17578125 174.595703125Q362.25 175.1171875 360.990234375 175.1171875Q359.71875 175.1171875 358.7958984375 174.6015625Q357.873046875 174.0859375 357.38671875 173.1103515625Q356.900390625 172.134765625 356.900390625 170.833984375Q356.900390625 168.853515625 357.984375 167.7373046875Q359.068359375 166.62109375 361.001953125 166.62109375Q362.26171875 166.62109375 363.1875 167.1220703125Q364.11328125 167.623046875 364.6025390625 168.578125Q365.091796875 169.533203125 365.091796875 170.833984375ZM363.94921875 170.833984375Q363.94921875 169.29296875 363.1787109375 168.4140625Q362.408203125 167.53515625 361.001953125 167.53515625Q359.583984375 167.53515625 358.810546875 168.40234375Q358.037109375 169.26953125 358.037109375 170.833984375Q358.037109375 172.38671875 358.8193359375 173.2978515625Q359.6015625 174.208984375 360.990234375 174.208984375Q362.419921875 174.208984375 363.1845703125 173.3271484375Q363.94921875 172.4453125 363.94921875 170.833984375Z"/>
<path class="sub" d="M371.650390625 175.0V166.744140625H372.76953125V174.0859375H376.94140625V175.0Z"/>
<path class="sub" d="M386.623046875 175.1171875Q385.609375 175.1171875 384.853515625 174.748046875Q384.09765625 174.37890625 383.681640625 173.67578125Q383.265625 172.97265625 383.265625 172.0V166.744140625H384.384765625V171.90625Q384.384765625 173.037109375 384.958984375 173.623046875Q385.533203125 174.208984375 386.6171875 174.208984375Q387.73046875 174.208984375 388.3486328125 173.6025390625Q388.966796875 172.99609375 388.966796875 171.830078125V166.744140625H390.080078125V171.89453125Q390.080078125 172.896484375 389.6552734375 173.623046875Q389.23046875 174.349609375 388.4541015625 174.7333984375Q387.677734375 175.1171875 386.623046875 175.1171875Z"/>
<path class="sub" d="M400.224609375 167.658203125V175.0H399.111328125V167.658203125H396.275390625V166.744140625H403.060546875V167.658203125Z"/>
<path class="sub" d="M409.443359375 175.0V166.744140625H410.5625V175.0Z"/>
<path class="sub" d="M425.4296875 170.833984375Q425.4296875 172.12890625 424.9345703125 173.1015625Q424.439453125 174.07421875 423.513671875 174.595703125Q422.587890625 175.1171875 421.328125 175.1171875Q420.056640625 175.1171875 419.1337890625 174.6015625Q418.2109375 174.0859375 417.724609375 173.1103515625Q417.23828125 172.134765625 417.23828125 170.833984375Q417.23828125 168.853515625 418.322265625 167.7373046875Q419.40625 166.62109375 421.33984375 166.62109375Q422.599609375 166.62109375 423.525390625 167.1220703125Q424.451171875 167.623046875 424.9404296875 168.578125Q425.4296875 169.533203125 425.4296875 170.833984375ZM424.287109375 170.833984375Q424.287109375 169.29296875 423.5166015625 168.4140625Q422.74609375 167.53515625 421.33984375 167.53515625Q419.921875 167.53515625 419.1484375 168.40234375Q418.375 169.26953125 418.375 170.833984375Q418.375 172.38671875 419.1572265625 173.2978515625Q419.939453125 174.208984375 421.328125 174.208984375Q422.7578125 174.208984375 423.5224609375 173.3271484375Q424.287109375 172.4453125 424.287109375 170.833984375Z"/>
<path class="sub" d="M437.34375 175.0 432.92578125 167.96875 432.955078125 168.537109375 432.984375 169.515625V175.0H431.98828125V166.744140625H433.2890625L437.75390625 173.822265625Q437.68359375 172.673828125 437.68359375 172.158203125V166.744140625H438.69140625V175.0Z"/>
<path class="sub" d="M452.123046875 172.720703125Q452.123046875 173.86328125 451.2294921875 174.490234375Q450.3359375 175.1171875 448.712890625 175.1171875Q445.6953125 175.1171875 445.21484375 173.01953125L446.298828125 172.802734375Q446.486328125 173.546875 447.095703125 173.8955078125Q447.705078125 174.244140625 448.75390625 174.244140625Q449.837890625 174.244140625 450.4267578125 173.8720703125Q451.015625 173.5 451.015625 172.779296875Q451.015625 172.375 450.8310546875 172.123046875Q450.646484375 171.87109375 450.3125 171.70703125Q449.978515625 171.54296875 449.515625 171.431640625Q449.052734375 171.3203125 448.490234375 171.19140625Q447.51171875 170.974609375 447.0048828125 170.7578125Q446.498046875 170.541015625 446.205078125 170.2744140625Q445.912109375 170.0078125 445.7568359375 169.650390625Q445.6015625 169.29296875 445.6015625 168.830078125Q445.6015625 167.76953125 446.4130859375 167.1953125Q447.224609375 166.62109375 448.736328125 166.62109375Q450.142578125 166.62109375 450.88671875 167.0517578125Q451.630859375 167.482421875 451.9296875 168.51953125L450.828125 168.712890625Q450.646484375 168.056640625 450.13671875 167.7607421875Q449.626953125 167.46484375 448.724609375 167.46484375Q447.734375 167.46484375 447.212890625 167.79296875Q446.69140625 168.12109375 446.69140625 168.771484375Q446.69140625 169.15234375 446.8935546875 169.4013671875Q447.095703125 169.650390625 447.4765625 169.8232421875Q447.857421875 169.99609375 448.994140625 170.248046875Q449.375 170.3359375 449.7529296875 170.4267578125Q450.130859375 170.517578125 450.4765625 170.6435546875Q450.822265625 170.76953125 451.1240234375 170.939453125Q451.42578125 171.109375 451.6484375 171.35546875Q451.87109375 171.6015625 451.9970703125 171.935546875Q452.123046875 172.26953125 452.123046875 172.720703125Z"/>
</svg>