<svg width="100%" viewBox="-4.84 145.62 283.59 63.00" xmlns="http://www.w3.org/2000/svg">
<path fill="#ffffff" d="M3.15625 183.875V173.8125L35.25 161.59375V168.71875L9.21875 178.875L35.25 189.0V196.09375Z"/>
<path fill="#ffffff" d="M41.1875 200.625 66.84375 153.625H73.96875L48.4375 200.625Z"/>
<path fill="#ffffff" d="M133.90625 177.78125Q133.90625 184.65625 131.1875 189.875Q128.46875 195.09375 123.40625 197.859375Q118.34375 200.625 111.59375 200.625Q101.21875 200.625 95.328125 194.515625Q89.4375 188.40625 89.4375 177.78125Q89.4375 167.1875 95.3125 161.25Q101.1875 155.3125 111.65625 155.3125Q122.125 155.3125 128.015625 161.3125Q133.90625 167.3125 133.90625 177.78125ZM124.5 177.78125Q124.5 170.65625 121.125 166.609375Q117.75 162.5625 111.65625 162.5625Q105.46875 162.5625 102.09375 166.578125Q98.71875 170.59375 98.71875 177.78125Q98.71875 185.03125 102.171875 189.203125Q105.625 193.375 111.59375 193.375Q117.78125 193.375 121.140625 189.3125Q124.5 185.25 124.5 177.78125Z"/>
<path fill="#ffffff" d="M180.125 177.65625Q180.125 184.46875 177.453125 189.546875Q174.78125 194.625 169.890625 197.3125Q165.0 200.0 158.6875 200.0H140.875V155.96875H156.8125Q167.9375 155.96875 174.03125 161.578125Q180.125 167.1875 180.125 177.65625ZM170.84375 177.65625Q170.84375 170.5625 167.15625 166.828125Q163.46875 163.09375 156.625 163.09375H150.09375V192.875H157.90625Q163.84375 192.875 167.34375 188.78125Q170.84375 184.6875 170.84375 177.65625Z"/>
<path fill="#ffffff" d="M223.0 187.3125Q223.0 193.78125 218.203125 197.203125Q213.40625 200.625 204.125 200.625Q195.65625 200.625 190.84375 197.625Q186.03125 194.625 184.65625 188.53125L193.5625 187.0625Q194.46875 190.5625 197.09375 192.140625Q199.71875 193.71875 204.375 193.71875Q214.03125 193.71875 214.03125 187.84375Q214.03125 185.96875 212.921875 184.75Q211.8125 183.53125 209.796875 182.71875Q207.78125 181.90625 202.0625 180.75Q197.125 179.59375 195.1875 178.890625Q193.25 178.1875 191.6875 177.234375Q190.125 176.28125 189.03125 174.9375Q187.9375 173.59375 187.328125 171.78125Q186.71875 169.96875 186.71875 167.625Q186.71875 161.65625 191.203125 158.484375Q195.6875 155.3125 204.25 155.3125Q212.4375 155.3125 216.546875 157.875Q220.65625 160.4375 221.84375 166.34375L212.90625 167.5625Q212.21875 164.71875 210.109375 163.28125Q208.0 161.84375 204.0625 161.84375Q195.6875 161.84375 195.6875 167.09375Q195.6875 168.8125 196.578125 169.90625Q197.46875 171.0 199.21875 171.765625Q200.96875 172.53125 206.3125 173.6875Q212.65625 175.03125 215.390625 176.171875Q218.125 177.3125 219.71875 178.828125Q221.3125 180.34375 222.15625 182.453125Q223.0 184.5625 223.0 187.3125Z"/>
<path fill="#ffffff" d="M238.65625 196.09375V189.0L264.65625 178.875L238.65625 168.71875V161.59375L270.75 173.8125V183.875Z"/>
</svg>